<svg xmlns="http://www.w3.org/2000/svg" width="231.49" height="136.343" viewBox="0 0 231.49 136.343">
  <g id="グループ_49" data-name="グループ 49" transform="translate(-72.199 -1735.004)">
    <g id="グループ_48" data-name="グループ 48">
      <g id="グループ_47" data-name="グループ 47" transform="translate(-2975.123 -704.52)">
        <g id="グループ_39" data-name="グループ 39" transform="translate(3127.593 2537.965)">
          <rect id="長方形_21" data-name="長方形 21" width="80.596" height="20.575" fill="none" stroke="#fff" stroke-miterlimit="10" stroke-width="0.644" opacity="0.3"/>
          <rect id="長方形_22" data-name="長方形 22" width="80.596" height="20.575" fill="none" stroke="#fff" stroke-miterlimit="10" stroke-width="0.644"/>
          <line id="線_5" data-name="線 5" x2="21.641" y2="37.341" transform="translate(0.182 0.214)" fill="none" stroke="#fff" stroke-miterlimit="10" stroke-width="0.644"/>
          <path id="パス_37" data-name="パス 37" d="M3166.644,2612.9l21.7,16.98,58.632-37.507" transform="translate(-3166.563 -2592.369)" fill="none" stroke="#fff" stroke-miterlimit="10" stroke-width="0.644"/>
          <path id="パス_38" data-name="パス 38" d="M3257.168,2662.648" transform="translate(-3211.506 -2627.26)" fill="#fff" stroke="#fff" stroke-miterlimit="10" stroke-width="0.644"/>
          <line id="線_6" data-name="線 6" y1="17.075" x2="58.732" transform="translate(21.783 20.433)" fill="none" stroke="#fff" stroke-miterlimit="10" stroke-width="0.644"/>
        </g>
        <g id="グループ_40" data-name="グループ 40" transform="translate(3089.668 2527.363)">
          <path id="パス_39" data-name="パス 39" d="M3106.9,2585.331a7.434,7.434,0,0,1,3.641,1.692,5.312,5.312,0,0,1,1.675,3.966,5.994,5.994,0,0,1-1.1,3.411,6.333,6.333,0,0,1-3.028,2.38,17.208,17.208,0,0,1-5.875.749h-11.044v-.652h.88a2.35,2.35,0,0,0,2.105-.952,5.6,5.6,0,0,0,.4-2.626v-15.441a4.933,4.933,0,0,0-.5-2.8,2.508,2.508,0,0,0-2-.775h-.88v-.652h10.112a19.568,19.568,0,0,1,4.538.423,7.247,7.247,0,0,1,3.951,2.248,5.578,5.578,0,0,1,1.364,3.71,5.207,5.207,0,0,1-1.07,3.217A6.268,6.268,0,0,1,3106.9,2585.331Zm-9.042-.952a12.615,12.615,0,0,0,1.458.186q.82.062,1.8.062a9.889,9.889,0,0,0,3.788-.555,4.08,4.08,0,0,0,1.941-1.7,4.85,4.85,0,0,0,.673-2.5,4.611,4.611,0,0,0-1.674-3.578,7.154,7.154,0,0,0-4.884-1.48,11.5,11.5,0,0,0-3.106.388Zm0,11.422a17.035,17.035,0,0,0,3.952.476,7.021,7.021,0,0,0,4.762-1.436,4.538,4.538,0,0,0,1.638-3.552,5.294,5.294,0,0,0-.741-2.679,5,5,0,0,0-2.416-2.027,10.243,10.243,0,0,0-4.141-.74q-1.07,0-1.829.035a9.15,9.15,0,0,0-1.225.124Z" transform="translate(-3091.167 -2572.464)" fill="#fff"/>
          <path id="パス_40" data-name="パス 40" d="M3144.389,2571.315v21.417a5.951,5.951,0,0,0,.216,2.009,1.543,1.543,0,0,0,.664.749,3.746,3.746,0,0,0,1.674.256v.635h-7.748v-.635a3.292,3.292,0,0,0,1.484-.229,1.521,1.521,0,0,0,.621-.758,6.026,6.026,0,0,0,.224-2.027v-14.666a26.088,26.088,0,0,0-.12-3.358,1.489,1.489,0,0,0-.388-.855,1.014,1.014,0,0,0-.681-.229,3.169,3.169,0,0,0-1.139.282l-.293-.617,4.71-1.975Z" transform="translate(-3114.866 -2571.315)" fill="#fff"/>
          <path id="パス_41" data-name="パス 41" d="M3163.886,2579.759v12.974a6.055,6.055,0,0,0,.216,2.018,1.539,1.539,0,0,0,.638.75,3.355,3.355,0,0,0,1.545.247v.635h-7.678v-.635a3.511,3.511,0,0,0,1.553-.229,1.565,1.565,0,0,0,.63-.758,5.825,5.825,0,0,0,.233-2.027v-6.223a22.518,22.518,0,0,0-.155-3.4,1.4,1.4,0,0,0-.379-.784,1.056,1.056,0,0,0-.708-.22,3.394,3.394,0,0,0-1.173.264l-.242-.634,4.763-1.974Zm-1.432-8.443a1.665,1.665,0,0,1,1.234.521,1.737,1.737,0,0,1,.509,1.26,1.765,1.765,0,0,1-.509,1.269,1.652,1.652,0,0,1-1.234.529,1.676,1.676,0,0,1-1.242-.529,1.814,1.814,0,0,1-.009-2.529A1.683,1.683,0,0,1,3162.455,2571.315Z" transform="translate(-3124.528 -2571.315)" fill="#fff"/>
          <path id="パス_42" data-name="パス 42" d="M3181.723,2591.5q2.778-3.419,5.3-3.419a3.743,3.743,0,0,1,2.226.661,4.426,4.426,0,0,1,1.484,2.177,10.288,10.288,0,0,1,.38,3.243v6.893a5.918,5.918,0,0,0,.241,2.079,1.435,1.435,0,0,0,.613.688,3.4,3.4,0,0,0,1.562.247v.635h-7.817v-.635h.328a2.586,2.586,0,0,0,1.544-.344,1.811,1.811,0,0,0,.613-1.014,10.574,10.574,0,0,0,.069-1.656v-6.61a6.83,6.83,0,0,0-.561-3.2,1.992,1.992,0,0,0-1.89-1q-2.053,0-4.089,2.291v8.514a6.185,6.185,0,0,0,.19,2.027,1.612,1.612,0,0,0,.664.749,4.033,4.033,0,0,0,1.717.238v.635h-7.817v-.635h.345a1.838,1.838,0,0,0,1.631-.626,4.647,4.647,0,0,0,.423-2.388v-5.994a26.61,26.61,0,0,0-.13-3.543,1.532,1.532,0,0,0-.4-.864,1.064,1.064,0,0,0-.716-.229,3.265,3.265,0,0,0-1.156.264l-.259-.634,4.763-1.974h.741Z" transform="translate(-3133.392 -2579.641)" fill="#fff"/>
          <path id="パス_43" data-name="パス 43" d="M3224.322,2594.565a7.991,7.991,0,0,1-2.261,1.771,5.369,5.369,0,0,1-2.381.538,5.845,5.845,0,0,1-4.521-2.212,8.328,8.328,0,0,1-1.932-5.684,10.418,10.418,0,0,1,2.14-6.355,6.572,6.572,0,0,1,5.5-2.882,4.688,4.688,0,0,1,3.451,1.357v-2.979a24.884,24.884,0,0,0-.129-3.4,1.492,1.492,0,0,0-.406-.864,1.047,1.047,0,0,0-.689-.229,3.571,3.571,0,0,0-1.19.282l-.225-.617,4.71-1.975h.776v18.667a25.568,25.568,0,0,0,.129,3.464,1.548,1.548,0,0,0,.414.872.985.985,0,0,0,.664.247,3.688,3.688,0,0,0,1.243-.3l.19.617-4.694,1.992h-.793Zm0-1.234v-8.32a5.7,5.7,0,0,0-.621-2.186,3.629,3.629,0,0,0-1.372-1.489,3.276,3.276,0,0,0-1.665-.5,3.5,3.5,0,0,0-2.709,1.392,8.029,8.029,0,0,0-1.57,5.359,8.543,8.543,0,0,0,1.519,5.455,4.328,4.328,0,0,0,3.381,1.9A4.171,4.171,0,0,0,3224.322,2593.332Z" transform="translate(-3151.765 -2571.315)" fill="#fff"/>
          <path id="パス_44" data-name="パス 44" d="M3284.721,2572.542v8.267h-.639a10.453,10.453,0,0,0-1.113-3.789,5.854,5.854,0,0,0-2.286-2.24,6.23,6.23,0,0,0-3.072-.828,4.127,4.127,0,0,0-2.968,1.119,3.437,3.437,0,0,0-1.173,2.547,3.058,3.058,0,0,0,.742,1.992,19.081,19.081,0,0,0,5.091,3.525,35.035,35.035,0,0,1,4.477,2.759,6.691,6.691,0,0,1,1.847,2.265,6.075,6.075,0,0,1,.647,2.732,6.247,6.247,0,0,1-2.062,4.68,7.377,7.377,0,0,1-5.307,1.966,11.03,11.03,0,0,1-1.915-.159,19.221,19.221,0,0,1-2.217-.644,9.8,9.8,0,0,0-2.131-.555.892.892,0,0,0-.682.265,2.127,2.127,0,0,0-.371,1.093h-.638v-8.2h.638a11.757,11.757,0,0,0,1.208,3.852,5.858,5.858,0,0,0,2.321,2.125,7.076,7.076,0,0,0,3.425.845,4.809,4.809,0,0,0,3.409-1.163,3.635,3.635,0,0,0,1.25-2.75,3.793,3.793,0,0,0-.474-1.78,5.279,5.279,0,0,0-1.476-1.675,42.025,42.025,0,0,0-3.676-2.247,35.537,35.537,0,0,1-4.27-2.741,7.345,7.345,0,0,1-1.925-2.256,5.694,5.694,0,0,1-.655-2.714,5.943,5.943,0,0,1,1.932-4.434,6.8,6.8,0,0,1,4.917-1.859,9.69,9.69,0,0,1,3.952.934,4,4,0,0,0,1.363.44,1.013,1.013,0,0,0,.733-.273,2.2,2.2,0,0,0,.457-1.1Z" transform="translate(-3180.312 -2571.925)" fill="#fff"/>
          <path id="パス_45" data-name="パス 45" d="M3303.813,2590.164l4.866-2.009h.656v3.772a9.093,9.093,0,0,1,2.459-2.988,4.485,4.485,0,0,1,2.6-.855,4.961,4.961,0,0,1,3.969,1.9,9.127,9.127,0,0,1,1.95,6.064,10.231,10.231,0,0,1-2.346,6.909,6.156,6.156,0,0,1-4.866,2.239,5.971,5.971,0,0,1-2.208-.37,5.156,5.156,0,0,1-1.553-1.058v4.918a6.693,6.693,0,0,0,.2,2.106,1.5,1.5,0,0,0,.691.714,4.157,4.157,0,0,0,1.786.265v.652h-8.282v-.652h.431a3.081,3.081,0,0,0,1.622-.371,1.263,1.263,0,0,0,.509-.625,7.637,7.637,0,0,0,.182-2.195v-15.265a8.473,8.473,0,0,0-.138-1.992,1.2,1.2,0,0,0-.44-.635,1.4,1.4,0,0,0-.82-.211,3.065,3.065,0,0,0-1.052.247Zm5.522,2.8v6.028a13.165,13.165,0,0,0,.156,2.573,3.3,3.3,0,0,0,1.182,1.8,3.6,3.6,0,0,0,2.372.775,3.376,3.376,0,0,0,2.8-1.375,8.07,8.07,0,0,0,1.4-5.059,8.944,8.944,0,0,0-1.588-5.693,3.282,3.282,0,0,0-2.623-1.375,3.519,3.519,0,0,0-1.639.423A9.7,9.7,0,0,0,3309.335,2592.967Z" transform="translate(-3196.695 -2579.641)" fill="#fff"/>
          <path id="パス_46" data-name="パス 46" d="M3349.767,2588.084a6.949,6.949,0,0,1,5.763,2.785,8.672,8.672,0,0,1,1.846,5.464,10.482,10.482,0,0,1-1.018,4.39,7.55,7.55,0,0,1-2.8,3.349,7.3,7.3,0,0,1-3.977,1.128,6.653,6.653,0,0,1-5.677-2.908,9.139,9.139,0,0,1-1.777-5.5,9.927,9.927,0,0,1,1.078-4.415,7.469,7.469,0,0,1,2.838-3.244A7.173,7.173,0,0,1,3349.767,2588.084Zm-.535,1.146a3.548,3.548,0,0,0-1.838.555,3.881,3.881,0,0,0-1.492,1.948,9.555,9.555,0,0,0-.57,3.579,12.682,12.682,0,0,0,1.372,6.081q1.371,2.556,3.615,2.556a3.346,3.346,0,0,0,2.761-1.41q1.086-1.41,1.087-4.848a11.225,11.225,0,0,0-1.812-6.769A3.712,3.712,0,0,0,3349.232,2589.229Z" transform="translate(-3215.757 -2579.641)" fill="#fff"/>
          <path id="パス_47" data-name="パス 47" d="M3380.883,2578.492v5.306h3.692v1.234h-3.692v10.47a3.575,3.575,0,0,0,.44,2.115,1.387,1.387,0,0,0,1.13.547,1.951,1.951,0,0,0,1.1-.362,2.318,2.318,0,0,0,.828-1.066h.674a5.542,5.542,0,0,1-1.708,2.6,3.642,3.642,0,0,1-2.278.873,3.02,3.02,0,0,1-1.553-.449,2.7,2.7,0,0,1-1.122-1.287,6.894,6.894,0,0,1-.362-2.583v-10.858h-2.5v-.582a6.529,6.529,0,0,0,1.941-1.313,10.393,10.393,0,0,0,1.768-2.195,19.944,19.944,0,0,0,1.1-2.45Z" transform="translate(-3232.344 -2574.878)" fill="#fff"/>
        </g>
        <g id="グループ_43" data-name="グループ 43" transform="translate(3088.147 2482.785)">
          <g id="グループ_41" data-name="グループ 41">
            <path id="パス_48" data-name="パス 48" d="M3088.147,2487.593l9.646-4.808h.965v34.19a18.546,18.546,0,0,0,.277,4.24,2.2,2.2,0,0,0,1.155,1.284,9.635,9.635,0,0,0,3.566.508v1.1h-14.908v-1.1a9.841,9.841,0,0,0,3.625-.493,2.42,2.42,0,0,0,1.14-1.164,16.143,16.143,0,0,0,.322-4.374v-21.858a32.94,32.94,0,0,0-.292-5.672,2.41,2.41,0,0,0-.746-1.4,1.971,1.971,0,0,0-1.3-.448,7.653,7.653,0,0,0-3.011.925Z" transform="translate(-3088.147 -2482.785)" fill="#fff"/>
            <path id="パス_49" data-name="パス 49" d="M3123.688,2504.1a31.432,31.432,0,0,1,2.046-11.929,16.661,16.661,0,0,1,5.437-7.45,9.052,9.052,0,0,1,5.437-1.941q4.559,0,8.184,4.748,4.53,5.883,4.53,15.945a32.027,32.027,0,0,1-1.988,11.974,15.818,15.818,0,0,1-5.071,7.151,10.238,10.238,0,0,1-5.948,2.225q-5.67,0-9.441-6.838A28.292,28.292,0,0,1,3123.688,2504.1Zm5.729.746a38.839,38.839,0,0,0,2.017,13.646q1.667,4.451,4.969,4.449a5.131,5.131,0,0,0,3.274-1.448,9.275,9.275,0,0,0,2.573-4.853,60.259,60.259,0,0,0,1.344-14.481,40.456,40.456,0,0,0-1.4-11.556,10.3,10.3,0,0,0-2.719-4.867,4.411,4.411,0,0,0-2.894-.986,4.563,4.563,0,0,0-3.536,1.821q-2.1,2.48-2.865,7.794A73.925,73.925,0,0,0,3129.417,2504.851Z" transform="translate(-3105.792 -2482.785)" fill="#fff"/>
          </g>
          <g id="グループ_42" data-name="グループ 42" transform="translate(46.229 14.538)">
            <path id="パス_50" data-name="パス 50" d="M3179.955,2542.707h8.921v2.661h-8.921Z" transform="translate(-3179.955 -2527.072)" fill="#fff"/>
            <path id="パス_51" data-name="パス 51" d="M3213.5,2528.424v5.5h-.57a7.2,7.2,0,0,0-1.682-3.525,3.736,3.736,0,0,0-2.614-.935,2.847,2.847,0,0,0-1.95.652,1.9,1.9,0,0,0-.742,1.446,2.66,2.66,0,0,0,.553,1.693,6.128,6.128,0,0,0,2.174,1.533l2.519,1.252q3.5,1.744,3.5,4.6a4.38,4.38,0,0,1-1.63,3.551,5.58,5.58,0,0,1-3.649,1.349,12.329,12.329,0,0,1-3.313-.529,3.316,3.316,0,0,0-.932-.176.687.687,0,0,0-.621.458h-.569v-5.764h.569a6.609,6.609,0,0,0,1.846,3.719,4.405,4.405,0,0,0,3.054,1.252,2.705,2.705,0,0,0,1.942-.714,2.289,2.289,0,0,0,.75-1.718,2.763,2.763,0,0,0-.837-2.045,14.6,14.6,0,0,0-3.339-2.1,9.885,9.885,0,0,1-3.278-2.292,4.024,4.024,0,0,1-.777-2.538,4.524,4.524,0,0,1,1.337-3.331,4.678,4.678,0,0,1,3.46-1.34,7.979,7.979,0,0,1,2.26.405,5.226,5.226,0,0,0,1.173.264.674.674,0,0,0,.431-.123,1.68,1.68,0,0,0,.363-.547Z" transform="translate(-3191.847 -2519.98)" fill="#fff"/>
            <path id="パス_52" data-name="パス 52" d="M3232.848,2534.963a8.41,8.41,0,0,0,1.708,5.641,5.17,5.17,0,0,0,4.055,2.045,4.335,4.335,0,0,0,2.7-.873,6.451,6.451,0,0,0,1.924-2.987l.535.352a8.473,8.473,0,0,1-2.1,4.4,5.57,5.57,0,0,1-4.366,1.983,6.318,6.318,0,0,1-4.874-2.266,8.789,8.789,0,0,1-2.028-6.09,9.334,9.334,0,0,1,2.079-6.46,6.718,6.718,0,0,1,5.22-2.318,5.773,5.773,0,0,1,4.365,1.789,6.642,6.642,0,0,1,1.708,4.785Zm0-1.022h7.316a7.064,7.064,0,0,0-.362-2.186,3.48,3.48,0,0,0-1.286-1.551,3.19,3.19,0,0,0-1.785-.565,3.523,3.523,0,0,0-2.563,1.137A4.984,4.984,0,0,0,3232.848,2533.941Z" transform="translate(-3204.998 -2519.963)" fill="#fff"/>
            <path id="パス_53" data-name="パス 53" d="M3274.663,2538.912a8.812,8.812,0,0,1-2.5,4.909,5.95,5.95,0,0,1-4.124,1.719,6.045,6.045,0,0,1-4.693-2.309,9.2,9.2,0,0,1-2-6.24,8.715,8.715,0,0,1,2.217-6.187,7.022,7.022,0,0,1,5.323-2.379,5.759,5.759,0,0,1,3.832,1.26,3.5,3.5,0,0,1,1.5,2.618,1.448,1.448,0,0,1-.423,1.084,1.615,1.615,0,0,1-1.181.415,1.819,1.819,0,0,1-1.536-.67,2.824,2.824,0,0,1-.389-1.411,2.336,2.336,0,0,0-.7-1.586,2.456,2.456,0,0,0-1.674-.528,3.394,3.394,0,0,0-2.778,1.3,7.037,7.037,0,0,0-1.4,4.565,9.394,9.394,0,0,0,1.389,5.1,4.25,4.25,0,0,0,3.753,2.212,4.483,4.483,0,0,0,3.037-1.182,7.987,7.987,0,0,0,1.846-2.943Z" transform="translate(-3220.36 -2519.98)" fill="#fff"/>
            <path id="パス_54" data-name="パス 54" d="M3300.1,2528.424a6.95,6.95,0,0,1,5.763,2.785,8.673,8.673,0,0,1,1.846,5.465,10.476,10.476,0,0,1-1.018,4.389,7.552,7.552,0,0,1-2.8,3.35,7.3,7.3,0,0,1-3.978,1.128,6.652,6.652,0,0,1-5.677-2.908,9.14,9.14,0,0,1-1.777-5.5,9.921,9.921,0,0,1,1.079-4.416,7.464,7.464,0,0,1,2.838-3.243A7.166,7.166,0,0,1,3300.1,2528.424Zm-.535,1.146a3.54,3.54,0,0,0-1.837.555,3.883,3.883,0,0,0-1.493,1.948,9.552,9.552,0,0,0-.569,3.578,12.683,12.683,0,0,0,1.372,6.082q1.371,2.555,3.615,2.556a3.347,3.347,0,0,0,2.761-1.41q1.086-1.41,1.086-4.848a11.225,11.225,0,0,0-1.811-6.768A3.712,3.712,0,0,0,3299.566,2529.569Z" transform="translate(-3235.808 -2519.98)" fill="#fff"/>
            <path id="パス_55" data-name="パス 55" d="M3331.1,2531.843q2.778-3.419,5.3-3.419a3.744,3.744,0,0,1,2.226.661,4.429,4.429,0,0,1,1.484,2.177,10.286,10.286,0,0,1,.379,3.243v6.892a5.92,5.92,0,0,0,.241,2.08,1.441,1.441,0,0,0,.613.688,3.411,3.411,0,0,0,1.562.247v.634h-7.817v-.634h.328a2.582,2.582,0,0,0,1.544-.344,1.806,1.806,0,0,0,.613-1.013,10.551,10.551,0,0,0,.069-1.657v-6.61a6.833,6.833,0,0,0-.561-3.2,1.993,1.993,0,0,0-1.89-1q-2.053,0-4.089,2.292v8.514a6.193,6.193,0,0,0,.19,2.027,1.611,1.611,0,0,0,.665.749,4.026,4.026,0,0,0,1.717.239v.634h-7.817v-.634h.346a1.836,1.836,0,0,0,1.63-.626,4.645,4.645,0,0,0,.423-2.389V2535.4a26.636,26.636,0,0,0-.129-3.542,1.54,1.54,0,0,0-.4-.864,1.063,1.063,0,0,0-.717-.229,3.277,3.277,0,0,0-1.156.264l-.258-.634,4.763-1.974h.741Z" transform="translate(-3252.26 -2519.98)" fill="#fff"/>
            <path id="パス_56" data-name="パス 56" d="M3373.7,2534.906a8,8,0,0,1-2.261,1.771,5.362,5.362,0,0,1-2.381.538,5.845,5.845,0,0,1-4.521-2.213,8.326,8.326,0,0,1-1.932-5.685,10.419,10.419,0,0,1,2.139-6.354,6.572,6.572,0,0,1,5.5-2.882,4.69,4.69,0,0,1,3.451,1.358v-2.979a24.861,24.861,0,0,0-.13-3.4,1.5,1.5,0,0,0-.406-.864,1.048,1.048,0,0,0-.69-.229,3.564,3.564,0,0,0-1.19.282l-.225-.617,4.71-1.974h.777v18.667a25.556,25.556,0,0,0,.129,3.463,1.55,1.55,0,0,0,.414.873.984.984,0,0,0,.664.247,3.673,3.673,0,0,0,1.243-.3l.19.617-4.694,1.992h-.793Zm0-1.233v-8.321a5.722,5.722,0,0,0-.621-2.185,3.628,3.628,0,0,0-1.372-1.49,3.282,3.282,0,0,0-1.665-.5,3.5,3.5,0,0,0-2.709,1.392,8.03,8.03,0,0,0-1.57,5.359,8.542,8.542,0,0,0,1.519,5.455,4.327,4.327,0,0,0,3.381,1.9A4.172,4.172,0,0,0,3373.7,2533.672Z" transform="translate(-3270.633 -2511.656)" fill="#fff"/>
          </g>
        </g>
      </g>
      <path id="パス_57" data-name="パス 57" d="M-112.231-3.864l1.3-3.668h.028l1.26,3.668Zm.21-6.132L-115.8,0h2.212l.784-2.226h3.738L-108.311,0h2.282l-3.738-10Zm14.2,8.694a1.585,1.585,0,0,1-.812-.2,1.573,1.573,0,0,1-.539-.511,2.207,2.207,0,0,1-.294-.735,4.022,4.022,0,0,1-.091-.854,4.416,4.416,0,0,1,.084-.868,2.179,2.179,0,0,1,.287-.742,1.634,1.634,0,0,1,.532-.525,1.533,1.533,0,0,1,.819-.2,1.505,1.505,0,0,1,.805.2A1.677,1.677,0,0,1-96.5-5.2a2.274,2.274,0,0,1,.3.749A4.021,4.021,0,0,1-96.1-3.6a4.344,4.344,0,0,1-.084.854,2.105,2.105,0,0,1-.287.735,1.593,1.593,0,0,1-.532.511A1.577,1.577,0,0,1-97.825-1.3Zm-3.654-5.936V2.534h1.988V-.9h.028a2.345,2.345,0,0,0,.931.805,2.818,2.818,0,0,0,1.239.273A2.99,2.99,0,0,0-95.9-.126a2.948,2.948,0,0,0,.994-.826,3.564,3.564,0,0,0,.595-1.19,4.974,4.974,0,0,0,.2-1.4,5.5,5.5,0,0,0-.2-1.477,3.607,3.607,0,0,0-.6-1.239,3.035,3.035,0,0,0-1.022-.854,3.135,3.135,0,0,0-1.47-.322,2.835,2.835,0,0,0-1.232.266,2.187,2.187,0,0,0-.924.854h-.028v-.924Zm8.554,0V0h1.988V-3.262a4,4,0,0,1,.1-.91,1.993,1.993,0,0,1,.329-.735,1.6,1.6,0,0,1,.609-.5,2.118,2.118,0,0,1,.924-.182,3.55,3.55,0,0,1,.378.021q.2.021.336.049V-7.364a1.55,1.55,0,0,0-.434-.07,2.374,2.374,0,0,0-.728.112,2.668,2.668,0,0,0-.658.315,2.477,2.477,0,0,0-.546.49,2.445,2.445,0,0,0-.378.623h-.028V-7.238Zm6.958,3.626a4.343,4.343,0,0,1,.084-.854,2.179,2.179,0,0,1,.287-.742,1.612,1.612,0,0,1,.539-.525,1.6,1.6,0,0,1,.84-.2,1.638,1.638,0,0,1,.847.2,1.592,1.592,0,0,1,.546.525,2.179,2.179,0,0,1,.287.742,4.344,4.344,0,0,1,.084.854,4.239,4.239,0,0,1-.084.847,2.256,2.256,0,0,1-.287.742,1.511,1.511,0,0,1-.546.525,1.685,1.685,0,0,1-.847.2,1.645,1.645,0,0,1-.84-.2,1.529,1.529,0,0,1-.539-.525,2.256,2.256,0,0,1-.287-.742A4.239,4.239,0,0,1-85.967-3.612Zm-1.988,0a4.386,4.386,0,0,0,.266,1.568,3.4,3.4,0,0,0,.756,1.2,3.307,3.307,0,0,0,1.176.763,4.231,4.231,0,0,0,1.54.266A4.287,4.287,0,0,0-82.67-.084a3.3,3.3,0,0,0,1.183-.763,3.4,3.4,0,0,0,.756-1.2,4.386,4.386,0,0,0,.266-1.568,4.443,4.443,0,0,0-.266-1.575,3.389,3.389,0,0,0-.756-1.2,3.374,3.374,0,0,0-1.183-.77,4.189,4.189,0,0,0-1.547-.273,4.134,4.134,0,0,0-1.54.273,3.388,3.388,0,0,0-1.176.77,3.39,3.39,0,0,0-.756,1.2A4.443,4.443,0,0,0-87.955-3.612Zm14.084,0a3.808,3.808,0,0,1-.1.868A2.3,2.3,0,0,1-74.277-2a1.613,1.613,0,0,1-.525.511,1.457,1.457,0,0,1-.763.189,1.466,1.466,0,0,1-.756-.189A1.59,1.59,0,0,1-76.853-2a2.3,2.3,0,0,1-.308-.742,3.808,3.808,0,0,1-.1-.868,3.871,3.871,0,0,1,.1-.882,2.3,2.3,0,0,1,.308-.742,1.59,1.59,0,0,1,.532-.511,1.466,1.466,0,0,1,.756-.189,1.457,1.457,0,0,1,.763.189,1.613,1.613,0,0,1,.525.511,2.3,2.3,0,0,1,.308.742A3.871,3.871,0,0,1-73.871-3.612ZM-79.177-10V0h1.89V-.924h.028a1.812,1.812,0,0,0,.952.854,3.819,3.819,0,0,0,1.428.252A2.756,2.756,0,0,0-73.8-.042a2.76,2.76,0,0,0,.959-.686,3.508,3.508,0,0,0,.693-1.183,4.959,4.959,0,0,0,.266-1.715,4.959,4.959,0,0,0-.266-1.715,3.508,3.508,0,0,0-.693-1.183A2.76,2.76,0,0,0-73.8-7.21a2.756,2.756,0,0,0-1.078-.224,3.341,3.341,0,0,0-1.295.259,2.121,2.121,0,0,0-.987.819h-.028V-10Zm13.426,5.6h-3.234a2.281,2.281,0,0,1,.091-.476,1.461,1.461,0,0,1,.266-.5,1.506,1.506,0,0,1,.5-.4,1.729,1.729,0,0,1,.791-.161,1.4,1.4,0,0,1,1.085.392A2.3,2.3,0,0,1-65.751-4.4Zm-3.234,1.26h5.222a5.11,5.11,0,0,0-.14-1.61,3.941,3.941,0,0,0-.637-1.372,3.213,3.213,0,0,0-1.127-.959,3.442,3.442,0,0,0-1.61-.357,3.749,3.749,0,0,0-1.5.294,3.558,3.558,0,0,0-1.169.8,3.548,3.548,0,0,0-.756,1.211,4.222,4.222,0,0,0-.266,1.512,4.407,4.407,0,0,0,.259,1.54,3.5,3.5,0,0,0,.735,1.2,3.2,3.2,0,0,0,1.162.777,4.134,4.134,0,0,0,1.54.273,3.791,3.791,0,0,0,2.1-.56A3.322,3.322,0,0,0-63.889-2.24h-1.75a1.249,1.249,0,0,1-.532.637,1.772,1.772,0,0,1-1.036.3,1.777,1.777,0,0,1-1.288-.434A2.01,2.01,0,0,1-68.985-3.136Zm12.334-5.222V-10h-1.988v1.638Zm-1.988,1.12V0h1.988V-7.238Zm3.556,0V0H-53.1V-3.794a2.685,2.685,0,0,1,.364-1.589,1.377,1.377,0,0,1,1.176-.483,1.084,1.084,0,0,1,.994.441,2.537,2.537,0,0,1,.28,1.337V0h1.988V-4.452a5.834,5.834,0,0,0-.119-1.225,2.33,2.33,0,0,0-.413-.938,1.941,1.941,0,0,0-.805-.6,3.376,3.376,0,0,0-1.309-.217,2.834,2.834,0,0,0-1.232.287,2.281,2.281,0,0,0-.98.917h-.042V-7.238Zm10.822,0v-2.17h-1.988v2.17h-1.2v1.33h1.2v4.27a1.849,1.849,0,0,0,.182.882,1.3,1.3,0,0,0,.5.518,2.063,2.063,0,0,0,.728.245,5.8,5.8,0,0,0,.875.063q.294,0,.6-.014A4.73,4.73,0,0,0-42.805,0V-1.54A2.785,2.785,0,0,1-43.1-1.5q-.154.014-.322.014a.973.973,0,0,1-.672-.168.973.973,0,0,1-.168-.672V-5.908h1.456v-1.33Zm4.172,3.626a4.344,4.344,0,0,1,.084-.854,2.179,2.179,0,0,1,.287-.742,1.612,1.612,0,0,1,.539-.525,1.6,1.6,0,0,1,.84-.2,1.638,1.638,0,0,1,.847.2,1.592,1.592,0,0,1,.546.525,2.179,2.179,0,0,1,.287.742,4.344,4.344,0,0,1,.084.854,4.239,4.239,0,0,1-.084.847,2.256,2.256,0,0,1-.287.742,1.511,1.511,0,0,1-.546.525,1.685,1.685,0,0,1-.847.2,1.645,1.645,0,0,1-.84-.2,1.529,1.529,0,0,1-.539-.525,2.256,2.256,0,0,1-.287-.742A4.239,4.239,0,0,1-40.089-3.612Zm-1.988,0a4.386,4.386,0,0,0,.266,1.568,3.4,3.4,0,0,0,.756,1.2,3.307,3.307,0,0,0,1.176.763,4.231,4.231,0,0,0,1.54.266,4.287,4.287,0,0,0,1.547-.266,3.3,3.3,0,0,0,1.183-.763,3.4,3.4,0,0,0,.756-1.2,4.386,4.386,0,0,0,.266-1.568,4.443,4.443,0,0,0-.266-1.575,3.389,3.389,0,0,0-.756-1.2,3.374,3.374,0,0,0-1.183-.77,4.189,4.189,0,0,0-1.547-.273,4.134,4.134,0,0,0-1.54.273,3.388,3.388,0,0,0-1.176.77,3.389,3.389,0,0,0-.756,1.2A4.443,4.443,0,0,0-42.077-3.612Zm13.1-2.3V0h1.988V-5.908h1.372v-1.33h-1.372v-.434a.929.929,0,0,1,.175-.637.763.763,0,0,1,.581-.189,6.109,6.109,0,0,1,.728.042V-9.94q-.252-.014-.518-.035T-26.551-10a2.439,2.439,0,0,0-1.82.616,2.169,2.169,0,0,0-.6,1.582v.56h-1.19v1.33Zm5.992,2.3a4.344,4.344,0,0,1,.084-.854,2.179,2.179,0,0,1,.287-.742,1.612,1.612,0,0,1,.539-.525,1.6,1.6,0,0,1,.84-.2,1.638,1.638,0,0,1,.847.2,1.592,1.592,0,0,1,.546.525,2.179,2.179,0,0,1,.287.742,4.344,4.344,0,0,1,.084.854,4.239,4.239,0,0,1-.084.847,2.256,2.256,0,0,1-.287.742,1.511,1.511,0,0,1-.546.525,1.685,1.685,0,0,1-.847.2,1.645,1.645,0,0,1-.84-.2,1.529,1.529,0,0,1-.539-.525,2.256,2.256,0,0,1-.287-.742A4.239,4.239,0,0,1-22.981-3.612Zm-1.988,0A4.386,4.386,0,0,0-24.7-2.044a3.4,3.4,0,0,0,.756,1.2,3.307,3.307,0,0,0,1.176.763,4.231,4.231,0,0,0,1.54.266,4.287,4.287,0,0,0,1.547-.266A3.3,3.3,0,0,0-18.5-.847a3.4,3.4,0,0,0,.756-1.2,4.386,4.386,0,0,0,.266-1.568,4.443,4.443,0,0,0-.266-1.575,3.39,3.39,0,0,0-.756-1.2,3.374,3.374,0,0,0-1.183-.77,4.189,4.189,0,0,0-1.547-.273,4.134,4.134,0,0,0-1.54.273,3.388,3.388,0,0,0-1.176.77,3.389,3.389,0,0,0-.756,1.2A4.443,4.443,0,0,0-24.969-3.612Zm8.778-3.626V0H-14.2V-3.262a4,4,0,0,1,.1-.91,1.993,1.993,0,0,1,.329-.735,1.6,1.6,0,0,1,.609-.5,2.118,2.118,0,0,1,.924-.182,3.55,3.55,0,0,1,.378.021q.2.021.336.049V-7.364a1.55,1.55,0,0,0-.434-.07,2.374,2.374,0,0,0-.728.112,2.668,2.668,0,0,0-.658.315,2.476,2.476,0,0,0-.546.49,2.445,2.445,0,0,0-.378.623H-14.3V-7.238Zm5.5,0V0H-8.7V-4.2a2.046,2.046,0,0,1,.154-.861,1.39,1.39,0,0,1,.371-.5A1.231,1.231,0,0,1-7.728-5.8a1.49,1.49,0,0,1,.371-.063,1.32,1.32,0,0,1,.721.161.894.894,0,0,1,.35.427,1.788,1.788,0,0,1,.119.581q.014.315.014.637V0h1.988V-4.032A4.508,4.508,0,0,1-4.116-4.7a1.682,1.682,0,0,1,.2-.588,1.166,1.166,0,0,1,.406-.42,1.272,1.272,0,0,1,.679-.161,1.342,1.342,0,0,1,.665.14.932.932,0,0,1,.371.378,1.456,1.456,0,0,1,.154.56q.028.322.028.686V0H.371V-4.844a3.264,3.264,0,0,0-.2-1.2,2.052,2.052,0,0,0-.546-.8,2.142,2.142,0,0,0-.84-.448,3.86,3.86,0,0,0-1.064-.14,2.326,2.326,0,0,0-1.309.364,3.081,3.081,0,0,0-.875.84,1.76,1.76,0,0,0-.861-.938,2.913,2.913,0,0,0-1.253-.266,2.56,2.56,0,0,0-1.267.308,2.831,2.831,0,0,0-.945.868h-.028v-.98ZM6.811-4.4H3.577a2.282,2.282,0,0,1,.091-.476,1.462,1.462,0,0,1,.266-.5,1.506,1.506,0,0,1,.5-.4,1.729,1.729,0,0,1,.791-.161,1.4,1.4,0,0,1,1.085.392A2.3,2.3,0,0,1,6.811-4.4ZM3.577-3.136H8.8a5.11,5.11,0,0,0-.14-1.61,3.941,3.941,0,0,0-.637-1.372,3.213,3.213,0,0,0-1.127-.959,3.442,3.442,0,0,0-1.61-.357A3.749,3.749,0,0,0,3.78-7.14a3.558,3.558,0,0,0-1.169.8,3.548,3.548,0,0,0-.756,1.211,4.221,4.221,0,0,0-.266,1.512,4.407,4.407,0,0,0,.259,1.54,3.5,3.5,0,0,0,.735,1.2,3.2,3.2,0,0,0,1.162.777,4.134,4.134,0,0,0,1.54.273,3.791,3.791,0,0,0,2.1-.56A3.322,3.322,0,0,0,8.673-2.24H6.923a1.249,1.249,0,0,1-.532.637,1.772,1.772,0,0,1-1.036.3,1.777,1.777,0,0,1-1.288-.434A2.01,2.01,0,0,1,3.577-3.136Zm6.4-4.1V0h1.988V-3.262a4,4,0,0,1,.1-.91,1.993,1.993,0,0,1,.329-.735A1.6,1.6,0,0,1,13-5.4a2.118,2.118,0,0,1,.924-.182,3.55,3.55,0,0,1,.378.021q.2.021.336.049V-7.364a1.55,1.55,0,0,0-.434-.07,2.374,2.374,0,0,0-.728.112,2.668,2.668,0,0,0-.658.315,2.476,2.476,0,0,0-.546.49,2.445,2.445,0,0,0-.378.623h-.028V-7.238ZM21.721-5.292v-3h1.708a4.6,4.6,0,0,1,.728.056,1.694,1.694,0,0,1,.616.217,1.182,1.182,0,0,1,.427.455,1.6,1.6,0,0,1,.161.77,1.6,1.6,0,0,1-.161.77,1.182,1.182,0,0,1-.427.455,1.694,1.694,0,0,1-.616.217,4.6,4.6,0,0,1-.728.056Zm-2.2-4.7V0h2.2V-3.584h2.31a4.163,4.163,0,0,0,1.6-.273A2.986,2.986,0,0,0,26.7-4.578a2.76,2.76,0,0,0,.6-1.029,3.8,3.8,0,0,0,.189-1.183A3.78,3.78,0,0,0,27.3-7.98,2.77,2.77,0,0,0,26.7-9a2.986,2.986,0,0,0-1.071-.721,4.163,4.163,0,0,0-1.6-.273Zm9.128,2.758V0h1.988V-3.262a4,4,0,0,1,.1-.91,1.993,1.993,0,0,1,.329-.735,1.6,1.6,0,0,1,.609-.5,2.118,2.118,0,0,1,.924-.182,3.55,3.55,0,0,1,.378.021q.2.021.336.049V-7.364a1.55,1.55,0,0,0-.434-.07,2.374,2.374,0,0,0-.728.112,2.668,2.668,0,0,0-.658.315,2.476,2.476,0,0,0-.546.49,2.445,2.445,0,0,0-.378.623h-.028V-7.238Zm7.49-1.12V-10H34.153v1.638Zm-1.988,1.12V0h1.988V-7.238Zm3.612,0V0h1.988V-4.2a2.046,2.046,0,0,1,.154-.861,1.39,1.39,0,0,1,.371-.5,1.231,1.231,0,0,1,.448-.238,1.49,1.49,0,0,1,.371-.063,1.32,1.32,0,0,1,.721.161.894.894,0,0,1,.35.427,1.788,1.788,0,0,1,.119.581q.014.315.014.637V0h1.988V-4.032a4.508,4.508,0,0,1,.049-.665,1.682,1.682,0,0,1,.2-.588,1.166,1.166,0,0,1,.406-.42,1.272,1.272,0,0,1,.679-.161,1.342,1.342,0,0,1,.665.14.932.932,0,0,1,.371.378,1.456,1.456,0,0,1,.154.56q.028.322.028.686V0h1.988V-4.844a3.264,3.264,0,0,0-.2-1.2,2.052,2.052,0,0,0-.546-.8,2.142,2.142,0,0,0-.84-.448,3.86,3.86,0,0,0-1.064-.14,2.326,2.326,0,0,0-1.309.364,3.081,3.081,0,0,0-.875.84,1.76,1.76,0,0,0-.861-.938,2.913,2.913,0,0,0-1.253-.266,2.56,2.56,0,0,0-1.267.308,2.831,2.831,0,0,0-.945.868h-.028v-.98ZM55.265-4.4H52.031a2.282,2.282,0,0,1,.091-.476,1.462,1.462,0,0,1,.266-.5,1.506,1.506,0,0,1,.5-.4,1.729,1.729,0,0,1,.791-.161,1.4,1.4,0,0,1,1.085.392A2.3,2.3,0,0,1,55.265-4.4Zm-3.234,1.26h5.222a5.11,5.11,0,0,0-.14-1.61,3.941,3.941,0,0,0-.637-1.372,3.213,3.213,0,0,0-1.127-.959,3.442,3.442,0,0,0-1.61-.357,3.749,3.749,0,0,0-1.505.294,3.558,3.558,0,0,0-1.169.8,3.548,3.548,0,0,0-.756,1.211,4.221,4.221,0,0,0-.266,1.512,4.407,4.407,0,0,0,.259,1.54,3.5,3.5,0,0,0,.735,1.2A3.2,3.2,0,0,0,52.2-.091a4.134,4.134,0,0,0,1.54.273,3.791,3.791,0,0,0,2.1-.56A3.322,3.322,0,0,0,57.127-2.24h-1.75a1.249,1.249,0,0,1-.532.637,1.772,1.772,0,0,1-1.036.3,1.777,1.777,0,0,1-1.288-.434A2.01,2.01,0,0,1,52.031-3.136ZM62.531-10V0h2.058V-7.014h.028L67.067,0h1.694l2.45-7.084h.028V0H73.3V-10H70.2L67.991-3.122h-.028L65.625-10ZM77.063-8.358V-10H75.075v1.638Zm-1.988,1.12V0h1.988V-7.238Zm3.556,0V0h1.988V-3.794a2.685,2.685,0,0,1,.364-1.589,1.377,1.377,0,0,1,1.176-.483,1.084,1.084,0,0,1,.994.441,2.537,2.537,0,0,1,.28,1.337V0h1.988V-4.452A5.834,5.834,0,0,0,85.3-5.677a2.33,2.33,0,0,0-.413-.938,1.941,1.941,0,0,0-.805-.6,3.376,3.376,0,0,0-1.309-.217,2.834,2.834,0,0,0-1.232.287,2.281,2.281,0,0,0-.98.917h-.042V-7.238Zm10.346-1.12V-10H86.989v1.638Zm-1.988,1.12V0h1.988V-7.238Zm5.1,4.886h-1.89a2.434,2.434,0,0,0,.329,1.211,2.4,2.4,0,0,0,.77.777,3.252,3.252,0,0,0,1.071.42A6,6,0,0,0,93.6.182,6.16,6.16,0,0,0,94.808.063,3.07,3.07,0,0,0,95.865-.35a2.3,2.3,0,0,0,.749-.777,2.308,2.308,0,0,0,.287-1.2,1.685,1.685,0,0,0-.2-.847,1.794,1.794,0,0,0-.518-.574,2.786,2.786,0,0,0-.735-.371,8.4,8.4,0,0,0-.847-.238q-.42-.1-.826-.182a6.388,6.388,0,0,1-.721-.189A1.511,1.511,0,0,1,92.547-5a.545.545,0,0,1-.2-.434.536.536,0,0,1,.112-.357.735.735,0,0,1,.273-.2,1.215,1.215,0,0,1,.357-.091,3.432,3.432,0,0,1,.364-.021,1.984,1.984,0,0,1,.924.2.87.87,0,0,1,.434.777H96.7a2.375,2.375,0,0,0-.343-1.113,2.266,2.266,0,0,0-.721-.707,3.018,3.018,0,0,0-.987-.378,5.734,5.734,0,0,0-1.141-.112,6.216,6.216,0,0,0-1.148.1,3.161,3.161,0,0,0-1.008.364,2.012,2.012,0,0,0-.721.707,2.178,2.178,0,0,0-.273,1.148,1.547,1.547,0,0,0,.2.8,1.7,1.7,0,0,0,.518.546,2.894,2.894,0,0,0,.735.35q.413.133.847.231a11.882,11.882,0,0,1,1.659.448q.6.224.6.672a.736.736,0,0,1-.126.441.955.955,0,0,1-.315.28,1.5,1.5,0,0,1-.42.154,2.126,2.126,0,0,1-.441.049,2.274,2.274,0,0,1-.567-.07,1.471,1.471,0,0,1-.483-.217,1.162,1.162,0,0,1-.343-.378A1.09,1.09,0,0,1,92.085-2.352Zm8.5-4.886v-2.17H98.6v2.17h-1.2v1.33h1.2v4.27a1.85,1.85,0,0,0,.182.882,1.3,1.3,0,0,0,.5.518A2.063,2.063,0,0,0,100,.007a5.8,5.8,0,0,0,.875.063q.294,0,.6-.014a4.731,4.731,0,0,0,.56-.056V-1.54a2.785,2.785,0,0,1-.294.042q-.154.014-.322.014a.973.973,0,0,1-.672-.168.973.973,0,0,1-.168-.672V-5.908h1.456v-1.33Zm7.28,2.842h-3.234a2.281,2.281,0,0,1,.091-.476,1.461,1.461,0,0,1,.266-.5,1.506,1.506,0,0,1,.5-.4,1.729,1.729,0,0,1,.791-.161,1.4,1.4,0,0,1,1.085.392A2.3,2.3,0,0,1,107.863-4.4Zm-3.234,1.26h5.222a5.11,5.11,0,0,0-.14-1.61,3.941,3.941,0,0,0-.637-1.372,3.213,3.213,0,0,0-1.127-.959,3.442,3.442,0,0,0-1.61-.357,3.749,3.749,0,0,0-1.5.294,3.558,3.558,0,0,0-1.169.8,3.548,3.548,0,0,0-.756,1.211,4.222,4.222,0,0,0-.266,1.512,4.407,4.407,0,0,0,.259,1.54,3.5,3.5,0,0,0,.735,1.2,3.2,3.2,0,0,0,1.162.777,4.134,4.134,0,0,0,1.54.273,3.791,3.791,0,0,0,2.1-.56,3.322,3.322,0,0,0,1.288-1.862h-1.75a1.249,1.249,0,0,1-.532.637,1.772,1.772,0,0,1-1.036.3,1.777,1.777,0,0,1-1.288-.434A2.01,2.01,0,0,1,104.629-3.136Zm6.4-4.1V0h1.988V-3.262a4,4,0,0,1,.1-.91,1.993,1.993,0,0,1,.329-.735,1.6,1.6,0,0,1,.609-.5,2.118,2.118,0,0,1,.924-.182,3.55,3.55,0,0,1,.378.021q.2.021.336.049V-7.364a1.55,1.55,0,0,0-.434-.07,2.374,2.374,0,0,0-.728.112,2.668,2.668,0,0,0-.658.315,2.477,2.477,0,0,0-.546.49,2.445,2.445,0,0,0-.378.623h-.028V-7.238ZM-88.011,12.682h-2.128a3.3,3.3,0,0,0,.336,1.6,3.147,3.147,0,0,0,.945,1.106,4.032,4.032,0,0,0,1.372.637,6.315,6.315,0,0,0,1.6.2,6.155,6.155,0,0,0,1.8-.238,3.8,3.8,0,0,0,1.3-.665,2.768,2.768,0,0,0,.791-1.015,3.055,3.055,0,0,0,.266-1.274,2.451,2.451,0,0,0-.357-1.379,2.982,2.982,0,0,0-.847-.861,3.723,3.723,0,0,0-.987-.469q-.5-.147-.777-.2-.938-.238-1.519-.392a5.634,5.634,0,0,1-.91-.308,1,1,0,0,1-.441-.336.9.9,0,0,1-.112-.476.94.94,0,0,1,.14-.532,1.216,1.216,0,0,1,.357-.35,1.423,1.423,0,0,1,.483-.2,2.576,2.576,0,0,1,.532-.056,3.749,3.749,0,0,1,.749.07,1.805,1.805,0,0,1,.609.238,1.237,1.237,0,0,1,.427.462,1.767,1.767,0,0,1,.189.742h2.128a3.07,3.07,0,0,0-.329-1.477,2.868,2.868,0,0,0-.889-1,3.754,3.754,0,0,0-1.281-.567,6.359,6.359,0,0,0-1.505-.175,5.122,5.122,0,0,0-1.344.182,3.752,3.752,0,0,0-1.2.56,2.981,2.981,0,0,0-.861.945A2.617,2.617,0,0,0-89.8,8.79a2.444,2.444,0,0,0,.259,1.169,2.472,2.472,0,0,0,.679.805,3.752,3.752,0,0,0,.952.525,9.572,9.572,0,0,0,1.092.343q.546.154,1.078.28a6.777,6.777,0,0,1,.952.294,2.054,2.054,0,0,1,.679.42.877.877,0,0,1,.259.658.966.966,0,0,1-.2.623,1.374,1.374,0,0,1-.49.385,2.192,2.192,0,0,1-.63.189,4.379,4.379,0,0,1-.63.049,3.341,3.341,0,0,1-.84-.1,2.091,2.091,0,0,1-.707-.322,1.59,1.59,0,0,1-.483-.567A1.833,1.833,0,0,1-88.011,12.682ZM-80.633,6V16h1.988V12.206a2.685,2.685,0,0,1,.364-1.589,1.377,1.377,0,0,1,1.176-.483,1.084,1.084,0,0,1,.994.441,2.537,2.537,0,0,1,.28,1.337V16h1.988V11.548a5.834,5.834,0,0,0-.119-1.225,2.33,2.33,0,0,0-.413-.938,1.941,1.941,0,0,0-.805-.6,3.376,3.376,0,0,0-1.309-.217,2.607,2.607,0,0,0-1.148.287,2.3,2.3,0,0,0-.966.917h-.042V6Zm10.346,1.638V6h-1.988V7.642Zm-1.988,1.12V16h1.988V8.762Zm3.556,0V16h1.988V12.206a2.685,2.685,0,0,1,.364-1.589,1.377,1.377,0,0,1,1.176-.483,1.084,1.084,0,0,1,.994.441,2.537,2.537,0,0,1,.28,1.337V16h1.988V11.548a5.834,5.834,0,0,0-.119-1.225,2.33,2.33,0,0,0-.413-.938,1.941,1.941,0,0,0-.805-.6,3.376,3.376,0,0,0-1.309-.217,2.834,2.834,0,0,0-1.232.287,2.281,2.281,0,0,0-.98.917h-.042V8.762Zm7.854,5.74V16h6.65V14.5h-4.032l3.766-4.242v-1.5h-6.1v1.5H-57.1Zm9.478-2.114a4.344,4.344,0,0,1,.084-.854,2.179,2.179,0,0,1,.287-.742,1.612,1.612,0,0,1,.539-.525,1.6,1.6,0,0,1,.84-.2,1.638,1.638,0,0,1,.847.2,1.592,1.592,0,0,1,.546.525,2.179,2.179,0,0,1,.287.742,4.344,4.344,0,0,1,.084.854,4.239,4.239,0,0,1-.084.847,2.256,2.256,0,0,1-.287.742,1.511,1.511,0,0,1-.546.525,1.685,1.685,0,0,1-.847.2,1.645,1.645,0,0,1-.84-.2,1.529,1.529,0,0,1-.539-.525,2.256,2.256,0,0,1-.287-.742A4.239,4.239,0,0,1-51.387,12.388Zm-1.988,0a4.386,4.386,0,0,0,.266,1.568,3.4,3.4,0,0,0,.756,1.2,3.307,3.307,0,0,0,1.176.763,4.231,4.231,0,0,0,1.54.266,4.287,4.287,0,0,0,1.547-.266,3.3,3.3,0,0,0,1.183-.763,3.4,3.4,0,0,0,.756-1.2,4.386,4.386,0,0,0,.266-1.568,4.443,4.443,0,0,0-.266-1.575,3.389,3.389,0,0,0-.756-1.2,3.374,3.374,0,0,0-1.183-.77,4.189,4.189,0,0,0-1.547-.273,4.134,4.134,0,0,0-1.54.273,3.388,3.388,0,0,0-1.176.77,3.389,3.389,0,0,0-.756,1.2A4.443,4.443,0,0,0-53.375,12.388Zm15.4-.252,1.3-3.668h.028l1.26,3.668ZM-37.765,6l-3.78,10h2.212l.784-2.226h3.738L-34.055,16h2.282L-35.511,6Zm11.956,6.384a3.808,3.808,0,0,1-.1.868,2.3,2.3,0,0,1-.308.742,1.613,1.613,0,0,1-.525.511,1.457,1.457,0,0,1-.763.189,1.466,1.466,0,0,1-.756-.189A1.59,1.59,0,0,1-28.791,14a2.3,2.3,0,0,1-.308-.742,3.808,3.808,0,0,1-.1-.868,3.871,3.871,0,0,1,.1-.882,2.3,2.3,0,0,1,.308-.742,1.59,1.59,0,0,1,.532-.511,1.466,1.466,0,0,1,.756-.189,1.457,1.457,0,0,1,.763.189,1.613,1.613,0,0,1,.525.511,2.3,2.3,0,0,1,.308.742A3.871,3.871,0,0,1-25.809,12.388ZM-31.115,6V16h1.89v-.924h.028a1.812,1.812,0,0,0,.952.854,3.819,3.819,0,0,0,1.428.252,2.756,2.756,0,0,0,1.078-.224,2.76,2.76,0,0,0,.959-.686,3.508,3.508,0,0,0,.693-1.183,4.959,4.959,0,0,0,.266-1.715,4.959,4.959,0,0,0-.266-1.715,3.508,3.508,0,0,0-.693-1.183,2.76,2.76,0,0,0-.959-.686,2.756,2.756,0,0,0-1.078-.224,3.341,3.341,0,0,0-1.3.259,2.121,2.121,0,0,0-.987.819h-.028V6Zm13.426,5.6h-3.234a2.282,2.282,0,0,1,.091-.476,1.461,1.461,0,0,1,.266-.5,1.506,1.506,0,0,1,.5-.4,1.729,1.729,0,0,1,.791-.161,1.4,1.4,0,0,1,1.085.392A2.3,2.3,0,0,1-17.689,11.6Zm-3.234,1.26H-15.7a5.11,5.11,0,0,0-.14-1.61,3.941,3.941,0,0,0-.637-1.372,3.213,3.213,0,0,0-1.127-.959,3.442,3.442,0,0,0-1.61-.357,3.749,3.749,0,0,0-1.505.294,3.558,3.558,0,0,0-1.169.8,3.548,3.548,0,0,0-.756,1.211,4.221,4.221,0,0,0-.266,1.512,4.407,4.407,0,0,0,.259,1.54,3.5,3.5,0,0,0,.735,1.2,3.2,3.2,0,0,0,1.162.777,4.134,4.134,0,0,0,1.54.273,3.791,3.791,0,0,0,2.1-.56,3.322,3.322,0,0,0,1.288-1.862h-1.75a1.249,1.249,0,0,1-.532.637,1.772,1.772,0,0,1-1.036.3,1.777,1.777,0,0,1-1.288-.434A2.01,2.01,0,0,1-20.923,12.864ZM-14.329,6V8.16h.924a1.8,1.8,0,0,1-.2.875,1.238,1.238,0,0,1-.728.539V10.5a2.265,2.265,0,0,0,.805-.259,2.277,2.277,0,0,0,.637-.511,2.255,2.255,0,0,0,.413-.714,2.32,2.32,0,0,0,.133-.868V6Zm4.2,7.644h-1.89a2.434,2.434,0,0,0,.329,1.211,2.4,2.4,0,0,0,.77.777,3.252,3.252,0,0,0,1.071.42,6,6,0,0,0,1.232.126,6.16,6.16,0,0,0,1.211-.119,3.07,3.07,0,0,0,1.057-.413,2.3,2.3,0,0,0,.749-.777,2.308,2.308,0,0,0,.287-1.2,1.685,1.685,0,0,0-.2-.847,1.794,1.794,0,0,0-.518-.574,2.786,2.786,0,0,0-.735-.371,8.4,8.4,0,0,0-.847-.238q-.42-.1-.826-.182a6.388,6.388,0,0,1-.721-.189A1.511,1.511,0,0,1-9.667,11a.545.545,0,0,1-.2-.434.536.536,0,0,1,.112-.357.735.735,0,0,1,.273-.2,1.215,1.215,0,0,1,.357-.091A3.432,3.432,0,0,1-8.757,9.9a1.984,1.984,0,0,1,.924.2.87.87,0,0,1,.434.777h1.89a2.375,2.375,0,0,0-.343-1.113,2.266,2.266,0,0,0-.721-.707,3.018,3.018,0,0,0-.987-.378A5.734,5.734,0,0,0-8.7,8.566a6.216,6.216,0,0,0-1.148.1,3.161,3.161,0,0,0-1.008.364,2.012,2.012,0,0,0-.721.707,2.178,2.178,0,0,0-.273,1.148,1.547,1.547,0,0,0,.2.805,1.7,1.7,0,0,0,.518.546,2.894,2.894,0,0,0,.735.35q.413.133.847.231A11.882,11.882,0,0,1-7.9,13.27q.595.224.595.672a.736.736,0,0,1-.126.441.955.955,0,0,1-.315.28,1.5,1.5,0,0,1-.42.154,2.126,2.126,0,0,1-.441.049,2.274,2.274,0,0,1-.567-.07,1.471,1.471,0,0,1-.483-.217A1.162,1.162,0,0,1-10,14.2,1.09,1.09,0,0,1-10.129,13.648Zm9.786-2.66a2.309,2.309,0,0,1,.35-1.162,2.383,2.383,0,0,1,.784-.742,3.416,3.416,0,0,1,1.071-.4,6.089,6.089,0,0,1,1.2-.119,8.112,8.112,0,0,1,1.106.077,3.383,3.383,0,0,1,1.022.3,2.014,2.014,0,0,1,.756.623,1.741,1.741,0,0,1,.294,1.057V14.39a7.563,7.563,0,0,0,.056.938,1.7,1.7,0,0,0,.2.672H4.473a2.853,2.853,0,0,1-.091-.343,2.987,2.987,0,0,1-.049-.357,2.591,2.591,0,0,1-1.12.686,4.5,4.5,0,0,1-1.316.2,3.555,3.555,0,0,1-.966-.126,2.212,2.212,0,0,1-.784-.392,1.825,1.825,0,0,1-.525-.672,2.272,2.272,0,0,1-.189-.966A2.11,2.11,0,0,1-.35,13.011a1.814,1.814,0,0,1,.56-.637,2.509,2.509,0,0,1,.784-.357,8.369,8.369,0,0,1,.889-.189q.448-.07.882-.112a5.3,5.3,0,0,0,.77-.126,1.342,1.342,0,0,0,.532-.245.538.538,0,0,0,.182-.469,1.055,1.055,0,0,0-.105-.511.772.772,0,0,0-.28-.294,1.1,1.1,0,0,0-.406-.14,3.322,3.322,0,0,0-.5-.035,1.509,1.509,0,0,0-.924.252,1.125,1.125,0,0,0-.392.84Zm4.592,1.47a.892.892,0,0,1-.315.175,3.217,3.217,0,0,1-.406.105q-.217.042-.455.07t-.476.07a3.59,3.59,0,0,0-.441.112,1.3,1.3,0,0,0-.378.189.9.9,0,0,0-.259.3.968.968,0,0,0-.1.462.935.935,0,0,0,.1.448.751.751,0,0,0,.266.287,1.123,1.123,0,0,0,.392.147,2.5,2.5,0,0,0,.462.042,1.757,1.757,0,0,0,.91-.2,1.311,1.311,0,0,0,.476-.469,1.5,1.5,0,0,0,.189-.553,3.8,3.8,0,0,0,.035-.448Zm5.068,1.19H7.427a2.434,2.434,0,0,0,.329,1.211,2.4,2.4,0,0,0,.77.777,3.252,3.252,0,0,0,1.071.42,6,6,0,0,0,1.232.126,6.16,6.16,0,0,0,1.211-.119A3.07,3.07,0,0,0,13.1,15.65a2.2,2.2,0,0,0,1.036-1.974,1.685,1.685,0,0,0-.2-.847,1.794,1.794,0,0,0-.518-.574,2.786,2.786,0,0,0-.735-.371,8.4,8.4,0,0,0-.847-.238q-.42-.1-.826-.182a6.388,6.388,0,0,1-.721-.189A1.511,1.511,0,0,1,9.779,11a.545.545,0,0,1-.2-.434.536.536,0,0,1,.112-.357.735.735,0,0,1,.273-.2,1.215,1.215,0,0,1,.357-.091,3.432,3.432,0,0,1,.364-.021,1.984,1.984,0,0,1,.924.2.87.87,0,0,1,.434.777h1.89a2.375,2.375,0,0,0-.343-1.113,2.266,2.266,0,0,0-.721-.707,3.018,3.018,0,0,0-.987-.378,5.734,5.734,0,0,0-1.141-.112,6.216,6.216,0,0,0-1.148.1,3.161,3.161,0,0,0-1.008.364,2.012,2.012,0,0,0-.721.707A2.178,2.178,0,0,0,7.6,10.89a1.547,1.547,0,0,0,.2.805,1.7,1.7,0,0,0,.518.546,2.894,2.894,0,0,0,.735.35q.413.133.847.231a11.882,11.882,0,0,1,1.659.448q.595.224.6.672a.736.736,0,0,1-.126.441.955.955,0,0,1-.315.28,1.5,1.5,0,0,1-.42.154,2.126,2.126,0,0,1-.441.049,2.274,2.274,0,0,1-.567-.07,1.471,1.471,0,0,1-.483-.217A1.162,1.162,0,0,1,9.45,14.2,1.09,1.09,0,0,1,9.317,13.648Zm7.518,0h-1.89a2.434,2.434,0,0,0,.329,1.211,2.4,2.4,0,0,0,.77.777,3.252,3.252,0,0,0,1.071.42,6,6,0,0,0,1.232.126,6.16,6.16,0,0,0,1.211-.119,3.07,3.07,0,0,0,1.057-.413,2.2,2.2,0,0,0,1.036-1.974,1.685,1.685,0,0,0-.2-.847,1.794,1.794,0,0,0-.518-.574,2.786,2.786,0,0,0-.735-.371,8.4,8.4,0,0,0-.847-.238q-.42-.1-.826-.182a6.388,6.388,0,0,1-.721-.189A1.511,1.511,0,0,1,17.3,11a.545.545,0,0,1-.2-.434.536.536,0,0,1,.112-.357.735.735,0,0,1,.273-.2,1.215,1.215,0,0,1,.357-.091,3.432,3.432,0,0,1,.364-.021,1.984,1.984,0,0,1,.924.2.87.87,0,0,1,.434.777h1.89a2.375,2.375,0,0,0-.343-1.113,2.266,2.266,0,0,0-.721-.707,3.018,3.018,0,0,0-.987-.378,5.734,5.734,0,0,0-1.141-.112,6.216,6.216,0,0,0-1.148.1,3.161,3.161,0,0,0-1.008.364,2.012,2.012,0,0,0-.721.707,2.178,2.178,0,0,0-.273,1.148,1.547,1.547,0,0,0,.2.805,1.7,1.7,0,0,0,.518.546,2.894,2.894,0,0,0,.735.35q.413.133.847.231a11.882,11.882,0,0,1,1.659.448q.6.224.6.672a.736.736,0,0,1-.126.441.955.955,0,0,1-.315.28,1.5,1.5,0,0,1-.42.154,2.126,2.126,0,0,1-.441.049,2.274,2.274,0,0,1-.567-.07,1.471,1.471,0,0,1-.483-.217,1.162,1.162,0,0,1-.343-.378A1.09,1.09,0,0,1,16.835,13.648Zm5.894-2.66a2.309,2.309,0,0,1,.35-1.162,2.383,2.383,0,0,1,.784-.742,3.416,3.416,0,0,1,1.071-.4,6.089,6.089,0,0,1,1.2-.119,8.112,8.112,0,0,1,1.106.077,3.383,3.383,0,0,1,1.022.3,2.014,2.014,0,0,1,.756.623,1.741,1.741,0,0,1,.294,1.057V14.39a7.563,7.563,0,0,0,.056.938,1.7,1.7,0,0,0,.2.672H27.545a2.853,2.853,0,0,1-.091-.343A2.987,2.987,0,0,1,27.4,15.3a2.591,2.591,0,0,1-1.12.686,4.5,4.5,0,0,1-1.316.2A3.555,3.555,0,0,1,24,16.056a2.212,2.212,0,0,1-.784-.392,1.825,1.825,0,0,1-.525-.672,2.272,2.272,0,0,1-.189-.966,2.11,2.11,0,0,1,.217-1.015,1.814,1.814,0,0,1,.56-.637,2.509,2.509,0,0,1,.784-.357,8.369,8.369,0,0,1,.889-.189q.448-.07.882-.112a5.3,5.3,0,0,0,.77-.126,1.342,1.342,0,0,0,.532-.245.538.538,0,0,0,.182-.469,1.055,1.055,0,0,0-.1-.511.772.772,0,0,0-.28-.294,1.1,1.1,0,0,0-.406-.14,3.322,3.322,0,0,0-.5-.035,1.509,1.509,0,0,0-.924.252,1.125,1.125,0,0,0-.392.84Zm4.592,1.47a.892.892,0,0,1-.315.175,3.217,3.217,0,0,1-.406.105q-.217.042-.455.07t-.476.07a3.59,3.59,0,0,0-.441.112,1.3,1.3,0,0,0-.378.189.9.9,0,0,0-.259.3.968.968,0,0,0-.1.462.935.935,0,0,0,.1.448.751.751,0,0,0,.266.287,1.123,1.123,0,0,0,.392.147,2.5,2.5,0,0,0,.462.042,1.757,1.757,0,0,0,.91-.2A1.311,1.311,0,0,0,27.1,14.2a1.5,1.5,0,0,0,.189-.553,3.8,3.8,0,0,0,.035-.448Zm5.068,1.19H30.5a2.434,2.434,0,0,0,.329,1.211,2.4,2.4,0,0,0,.77.777,3.252,3.252,0,0,0,1.071.42,6,6,0,0,0,1.232.126,6.16,6.16,0,0,0,1.211-.119,3.07,3.07,0,0,0,1.057-.413,2.2,2.2,0,0,0,1.036-1.974,1.685,1.685,0,0,0-.2-.847,1.794,1.794,0,0,0-.518-.574,2.786,2.786,0,0,0-.735-.371,8.4,8.4,0,0,0-.847-.238q-.42-.1-.826-.182a6.388,6.388,0,0,1-.721-.189A1.511,1.511,0,0,1,32.851,11a.545.545,0,0,1-.2-.434.536.536,0,0,1,.112-.357.735.735,0,0,1,.273-.2,1.215,1.215,0,0,1,.357-.091,3.432,3.432,0,0,1,.364-.021,1.984,1.984,0,0,1,.924.2.87.87,0,0,1,.434.777h1.89a2.375,2.375,0,0,0-.343-1.113,2.266,2.266,0,0,0-.721-.707,3.018,3.018,0,0,0-.987-.378,5.734,5.734,0,0,0-1.141-.112,6.216,6.216,0,0,0-1.148.1,3.161,3.161,0,0,0-1.008.364,2.012,2.012,0,0,0-.721.707,2.178,2.178,0,0,0-.273,1.148,1.547,1.547,0,0,0,.2.805,1.7,1.7,0,0,0,.518.546,2.894,2.894,0,0,0,.735.35q.413.133.847.231a11.882,11.882,0,0,1,1.659.448q.6.224.6.672a.736.736,0,0,1-.126.441.955.955,0,0,1-.315.28,1.5,1.5,0,0,1-.42.154,2.126,2.126,0,0,1-.441.049,2.274,2.274,0,0,1-.567-.07,1.471,1.471,0,0,1-.483-.217,1.162,1.162,0,0,1-.343-.378A1.09,1.09,0,0,1,32.389,13.648Zm7.518,0h-1.89a2.434,2.434,0,0,0,.329,1.211,2.4,2.4,0,0,0,.77.777,3.252,3.252,0,0,0,1.071.42,6,6,0,0,0,1.232.126,6.16,6.16,0,0,0,1.211-.119,3.07,3.07,0,0,0,1.057-.413,2.2,2.2,0,0,0,1.036-1.974,1.685,1.685,0,0,0-.2-.847,1.794,1.794,0,0,0-.518-.574,2.786,2.786,0,0,0-.735-.371,8.4,8.4,0,0,0-.847-.238q-.42-.1-.826-.182a6.388,6.388,0,0,1-.721-.189A1.511,1.511,0,0,1,40.369,11a.545.545,0,0,1-.2-.434.536.536,0,0,1,.112-.357.735.735,0,0,1,.273-.2,1.215,1.215,0,0,1,.357-.091,3.432,3.432,0,0,1,.364-.021,1.984,1.984,0,0,1,.924.2.87.87,0,0,1,.434.777h1.89a2.375,2.375,0,0,0-.343-1.113,2.266,2.266,0,0,0-.721-.707,3.018,3.018,0,0,0-.987-.378,5.734,5.734,0,0,0-1.141-.112,6.216,6.216,0,0,0-1.148.1,3.161,3.161,0,0,0-1.008.364,2.012,2.012,0,0,0-.721.707,2.178,2.178,0,0,0-.273,1.148,1.547,1.547,0,0,0,.2.805,1.7,1.7,0,0,0,.518.546,2.894,2.894,0,0,0,.735.35q.413.133.847.231a11.882,11.882,0,0,1,1.659.448q.6.224.6.672a.736.736,0,0,1-.126.441.955.955,0,0,1-.315.28,1.5,1.5,0,0,1-.42.154,2.126,2.126,0,0,1-.441.049,2.274,2.274,0,0,1-.567-.07,1.471,1.471,0,0,1-.483-.217,1.162,1.162,0,0,1-.343-.378A1.09,1.09,0,0,1,39.907,13.648Zm8.022-6.006V6H45.941V7.642Zm-1.988,1.12V16h1.988V8.762Zm3.556,0V16h1.988V12.206a2.685,2.685,0,0,1,.364-1.589,1.377,1.377,0,0,1,1.176-.483,1.084,1.084,0,0,1,.994.441,2.537,2.537,0,0,1,.28,1.337V16h1.988V11.548a5.834,5.834,0,0,0-.119-1.225,2.33,2.33,0,0,0-.413-.938,1.941,1.941,0,0,0-.805-.6,3.376,3.376,0,0,0-1.309-.217,2.834,2.834,0,0,0-1.232.287,2.281,2.281,0,0,0-.98.917h-.042V8.762Zm8.218,2.226a2.309,2.309,0,0,1,.35-1.162,2.383,2.383,0,0,1,.784-.742,3.416,3.416,0,0,1,1.071-.4,6.089,6.089,0,0,1,1.2-.119,8.112,8.112,0,0,1,1.106.077,3.383,3.383,0,0,1,1.022.3A2.014,2.014,0,0,1,64,9.567a1.741,1.741,0,0,1,.294,1.057V14.39a7.564,7.564,0,0,0,.056.938,1.7,1.7,0,0,0,.2.672H62.531a2.853,2.853,0,0,1-.091-.343,2.987,2.987,0,0,1-.049-.357,2.591,2.591,0,0,1-1.12.686,4.5,4.5,0,0,1-1.316.2,3.555,3.555,0,0,1-.966-.126,2.212,2.212,0,0,1-.784-.392,1.825,1.825,0,0,1-.525-.672,2.272,2.272,0,0,1-.189-.966,2.11,2.11,0,0,1,.217-1.015,1.814,1.814,0,0,1,.56-.637,2.509,2.509,0,0,1,.784-.357,8.37,8.37,0,0,1,.889-.189q.448-.07.882-.112a5.3,5.3,0,0,0,.77-.126,1.342,1.342,0,0,0,.532-.245.538.538,0,0,0,.182-.469,1.055,1.055,0,0,0-.1-.511.772.772,0,0,0-.28-.294,1.1,1.1,0,0,0-.406-.14,3.322,3.322,0,0,0-.5-.035,1.509,1.509,0,0,0-.924.252,1.125,1.125,0,0,0-.392.84Zm4.592,1.47a.892.892,0,0,1-.315.175,3.217,3.217,0,0,1-.406.105q-.217.042-.455.07t-.476.07a3.59,3.59,0,0,0-.441.112,1.3,1.3,0,0,0-.378.189.9.9,0,0,0-.259.3.968.968,0,0,0-.1.462.935.935,0,0,0,.1.448.751.751,0,0,0,.266.287,1.123,1.123,0,0,0,.392.147,2.5,2.5,0,0,0,.462.042,1.757,1.757,0,0,0,.91-.2,1.311,1.311,0,0,0,.476-.469,1.5,1.5,0,0,0,.189-.553,3.8,3.8,0,0,0,.035-.448Zm6.048-3.7V6.592H66.367v2.17h-1.2v1.33h1.2v4.27a1.85,1.85,0,0,0,.182.882,1.3,1.3,0,0,0,.5.518,2.063,2.063,0,0,0,.728.245,5.8,5.8,0,0,0,.875.063q.294,0,.6-.014a4.73,4.73,0,0,0,.56-.056V14.46a2.785,2.785,0,0,1-.294.042q-.154.014-.322.014a.973.973,0,0,1-.672-.168.973.973,0,0,1-.168-.672V10.092h1.456V8.762Zm4.452-1.12V6H70.819V7.642Zm-1.988,1.12V16h1.988V8.762Zm5.32,3.626a4.344,4.344,0,0,1,.084-.854,2.179,2.179,0,0,1,.287-.742,1.529,1.529,0,0,1,1.379-.728,1.638,1.638,0,0,1,.847.2,1.592,1.592,0,0,1,.546.525,2.179,2.179,0,0,1,.287.742,4.344,4.344,0,0,1,.084.854,4.239,4.239,0,0,1-.084.847,2.256,2.256,0,0,1-.287.742,1.511,1.511,0,0,1-.546.525,1.685,1.685,0,0,1-.847.2,1.645,1.645,0,0,1-.84-.2,1.529,1.529,0,0,1-.539-.525,2.257,2.257,0,0,1-.287-.742A4.239,4.239,0,0,1,76.139,12.388Zm-1.988,0a4.386,4.386,0,0,0,.266,1.568,3.4,3.4,0,0,0,.756,1.2,3.307,3.307,0,0,0,1.176.763,4.231,4.231,0,0,0,1.54.266,4.287,4.287,0,0,0,1.547-.266,3.3,3.3,0,0,0,1.183-.763,3.4,3.4,0,0,0,.756-1.2,4.386,4.386,0,0,0,.266-1.568,4.443,4.443,0,0,0-.266-1.575,3.3,3.3,0,0,0-1.939-1.974,4.189,4.189,0,0,0-1.547-.273,4.134,4.134,0,0,0-1.54.273,3.31,3.31,0,0,0-1.932,1.974A4.443,4.443,0,0,0,74.151,12.388Zm8.778-3.626V16h1.988V12.206a2.685,2.685,0,0,1,.364-1.589,1.377,1.377,0,0,1,1.176-.483,1.084,1.084,0,0,1,.994.441,2.537,2.537,0,0,1,.28,1.337V16h1.988V11.548a5.834,5.834,0,0,0-.119-1.225,2.33,2.33,0,0,0-.413-.938,1.941,1.941,0,0,0-.805-.6,3.376,3.376,0,0,0-1.309-.217,2.834,2.834,0,0,0-1.232.287,2.281,2.281,0,0,0-.98.917h-.042V8.762Z" transform="translate(188 1745)" fill="#fff"/>
    </g>
  </g>
</svg>
