<svg xmlns="http://www.w3.org/2000/svg" width="32" height="32" viewBox="0 0 32 32">
  <g fill="none" fill-rule="evenodd">
    <rect width="3.137" height="8.964" x="20.062" y="9" fill="#FFF"/>
    <path fill="#FFF" d="M17.7064454,16.1363048 C17.1755501,15.5429333 16.4374168,15.2093714 15.4903692,15.1374476 C16.3327311,14.9078095 16.9445406,14.5719619 17.3314358,14.1232 C17.7165025,13.680381 17.9075882,13.0792381 17.9075882,12.322819 C17.9075882,11.7239619 17.776693,11.1941333 17.5231311,10.736381 C17.2630168,10.2815238 16.8892263,9.91733333 16.3981025,9.64472381 C15.9683882,9.40838095 15.4577597,9.24167619 14.8624073,9.14339048 C14.2641597,9.04815238 13.2171501,9 11.7148263,9 L8.06179775,9 L8.06179775,22.3226667 L11.8254549,22.3226667 C13.3373787,22.3226667 14.4278168,22.2696381 15.0944835,22.1684571 C15.7605406,22.0637714 16.3194739,21.8874667 16.771893,21.6459429 C17.3314358,21.3506286 17.7582549,20.9303619 18.0564644,20.3904762 C18.3565025,19.8489143 18.5052263,19.2243048 18.5052263,18.5100952 C18.5052263,17.5220571 18.2390168,16.728 17.7064454,16.1363048 L17.7064454,16.1363048 Z M11.4349025,11.9536 L12.2146358,11.9536 C13.1158168,11.9536 13.7212263,12.0552381 14.0337597,12.2577524 C14.3420263,12.4613333 14.4992835,12.8125714 14.4992835,13.3131429 C14.4992835,13.7946667 14.3319692,14.1338667 14.0009978,14.3327238 C13.6657597,14.5279238 13.0545597,14.626819 12.1599311,14.626819 L11.4349025,14.626819 L11.4349025,11.9536 L11.4349025,11.9536 Z M14.5279311,19.5935238 C14.1731882,19.8114286 13.5618358,19.9184 12.7040835,19.9184 L11.4350549,19.9184 L11.4350549,17.007619 L12.7589406,17.007619 C13.6398549,17.007619 14.2487692,17.1184 14.5727311,17.3398095 C14.9018739,17.5613714 15.0637025,17.952381 15.0637025,18.5137524 C15.0635501,19.0161524 14.8860263,19.3768381 14.5279311,19.5935238 L14.5279311,19.5935238 Z"/>
    <path fill="#F9F9F9" d="M21.854712 18.7047619C20.8642358 18.7047619 20.0617978 19.5065905 20.0617978 20.4970667 20.0617978 21.4875429 20.8642358 22.289981 21.854712 22.289981 22.8439692 22.289981 23.6470168 21.4875429 23.6470168 20.4970667 23.6470168 19.5065905 22.8439692 18.7047619 21.854712 18.7047619L21.854712 18.7047619zM17.1337978 15.7047619L8.06179775 15.7047619 8.06179775 22.3660952 11.8254549 22.3660952C13.3373787 22.3660952 14.4278168 22.3130667 15.0944835 22.2118857 15.7605406 22.1072 16.3194739 21.9308952 16.771893 21.6893714 17.3314358 21.3940571 17.7582549 20.9737905 18.0564644 20.4339048 18.3565025 19.8923429 18.5052263 19.2677333 18.5052263 18.5535238 18.5052263 17.5656381 18.2390168 16.771581 17.7064454 16.1797333 17.5385216 15.9929143 17.342712 15.8405333 17.1337978 15.7047619L17.1337978 15.7047619zM14.5279311 19.6369524C14.1731882 19.8548571 13.5618358 19.9618286 12.7040835 19.9618286L11.4350549 19.9618286 11.4350549 17.0510476 12.7589406 17.0510476C13.6398549 17.0510476 14.2487692 17.1618286 14.5727311 17.3832381 14.9018739 17.6048 15.0637025 17.9958095 15.0637025 18.557181 15.0635501 19.059581 14.8860263 19.4202667 14.5279311 19.6369524L14.5279311 19.6369524z"/>
    <rect width="3.137" height="2.241" x="20.062" y="15.705" fill="#F9F9F9"/>
  </g>
</svg>
